<svg width="217" height="141" viewBox="0 0 217 141" fill="none" xmlns="http://www.w3.org/2000/svg">
<g clip-path="url(#clip0_554_1007)">
<path d="M401.385 139.674H0V140.62H401.385V139.674Z" fill="white"/>
<path d="M19.055 87.5367H42.9554V138.882H44.0917V86.5869H17.9148V138.882H19.055V87.5367Z" fill="white"/>
<path d="M39.9189 130.982H38.7826V133.669H39.9189V130.982Z" fill="white"/>
<path d="M36.5024 130.982H35.3661V133.669H36.5024V130.982Z" fill="white"/>
<path d="M33.0935 130.982H31.9533V133.669H33.0935V130.982Z" fill="white"/>
<path d="M26.2642 130.982H25.1241V133.669H26.2642V130.982Z" fill="white"/>
<path d="M22.8515 130.982H21.7114V133.669H22.8515V130.982Z" fill="white"/>
<path d="M36.5024 126.877H35.3661V129.564H36.5024V126.877Z" fill="white"/>
<path d="M33.0935 126.877H31.9533V129.564H33.0935V126.877Z" fill="white"/>
<path d="M29.6769 126.877H28.5368V129.564H29.6769V126.877Z" fill="white"/>
<path d="M26.2642 126.877H25.1241V129.564H26.2642V126.877Z" fill="white"/>
<path d="M22.8515 126.877H21.7114V129.564H22.8515V126.877Z" fill="white"/>
<path d="M39.9189 122.769H38.7826V125.456H39.9189V122.769Z" fill="white"/>
<path d="M36.5024 122.769H35.3661V125.456H36.5024V122.769Z" fill="white"/>
<path d="M33.0935 122.769H31.9533V125.456H33.0935V122.769Z" fill="white"/>
<path d="M29.6769 122.769H28.5368V125.456H29.6769V122.769Z" fill="white"/>
<path d="M39.9189 118.66H38.7826V121.347H39.9189V118.66Z" fill="white"/>
<path d="M36.5024 118.66H35.3661V121.347H36.5024V118.66Z" fill="white"/>
<path d="M33.0935 118.66H31.9533V121.347H33.0935V118.66Z" fill="white"/>
<path d="M29.6769 118.66H28.5368V121.347H29.6769V118.66Z" fill="white"/>
<path d="M26.2642 118.66H25.1241V121.347H26.2642V118.66Z" fill="white"/>
<path d="M22.8515 118.66H21.7114V121.347H22.8515V118.66Z" fill="white"/>
<path d="M39.9189 114.551H38.7826V117.239H39.9189V114.551Z" fill="white"/>
<path d="M36.5024 114.551H35.3661V117.239H36.5024V114.551Z" fill="white"/>
<path d="M33.0935 114.551H31.9533V117.239H33.0935V114.551Z" fill="white"/>
<path d="M29.6769 114.551H28.5368V117.239H29.6769V114.551Z" fill="white"/>
<path d="M26.2642 114.551H25.1241V117.239H26.2642V114.551Z" fill="white"/>
<path d="M22.8515 114.551H21.7114V117.239H22.8515V114.551Z" fill="white"/>
<path d="M39.9189 110.443H38.7826V113.13H39.9189V110.443Z" fill="white"/>
<path d="M33.0935 110.443H31.9533V113.13H33.0935V110.443Z" fill="white"/>
<path d="M29.6769 110.443H28.5368V113.13H29.6769V110.443Z" fill="white"/>
<path d="M26.2642 110.443H25.1241V113.13H26.2642V110.443Z" fill="white"/>
<path d="M39.9189 106.338H38.7826V109.025H39.9189V106.338Z" fill="white"/>
<path d="M36.5024 106.338H35.3661V109.025H36.5024V106.338Z" fill="white"/>
<path d="M33.0935 106.338H31.9533V109.025H33.0935V106.338Z" fill="white"/>
<path d="M29.6769 106.338H28.5368V109.025H29.6769V106.338Z" fill="white"/>
<path d="M26.2642 106.338H25.1241V109.025H26.2642V106.338Z" fill="white"/>
<path d="M39.9189 102.229H38.7826V104.916H39.9189V102.229Z" fill="white"/>
<path d="M36.5024 102.229H35.3661V104.916H36.5024V102.229Z" fill="white"/>
<path d="M33.0935 102.229H31.9533V104.916H33.0935V102.229Z" fill="white"/>
<path d="M29.6769 102.229H28.5368V104.916H29.6769V102.229Z" fill="white"/>
<path d="M26.2642 102.229H25.1241V104.916H26.2642V102.229Z" fill="white"/>
<path d="M22.8515 102.229H21.7114V104.916H22.8515V102.229Z" fill="white"/>
<path d="M39.9189 98.1206H38.7826V100.808H39.9189V98.1206Z" fill="white"/>
<path d="M36.5024 98.1206H35.3661V100.808H36.5024V98.1206Z" fill="white"/>
<path d="M33.0935 98.1206H31.9533V100.808H33.0935V98.1206Z" fill="white"/>
<path d="M29.6769 98.1206H28.5368V100.808H29.6769V98.1206Z" fill="white"/>
<path d="M22.8515 98.1206H21.7114V100.808H22.8515V98.1206Z" fill="white"/>
<path d="M39.9189 94.0122H38.7826V96.6996H39.9189V94.0122Z" fill="white"/>
<path d="M33.0935 94.0122H31.9533V96.6996H33.0935V94.0122Z" fill="white"/>
<path d="M29.6769 94.0122H28.5368V96.6996H29.6769V94.0122Z" fill="white"/>
<path d="M26.2642 94.0122H25.1241V96.6996H26.2642V94.0122Z" fill="white"/>
<path d="M22.8515 94.0122H21.7114V96.6996H22.8515V94.0122Z" fill="white"/>
<path d="M39.9189 89.9072H38.7826V92.5942H39.9189V89.9072Z" fill="white"/>
<path d="M36.5024 89.9072H35.3661V92.5942H36.5024V89.9072Z" fill="white"/>
<path d="M29.6769 89.9072H28.5368V92.5942H29.6769V89.9072Z" fill="white"/>
<path d="M26.2642 89.9072H25.1241V92.5942H26.2642V89.9072Z" fill="white"/>
<path d="M22.8515 89.9072H21.7114V92.5942H22.8515V89.9072Z" fill="white"/>
<path d="M42.9554 85.0614H44.0917V66.8234L67.4638 59.0373V68.1023V116.66H68.6001V68.1023V57.6383V54.5997L71.0285 52.4471V116.552H72.1687V51.4407V46.9747V43.9328H75.836V105.863H76.9723V42.9834H71.0285V46.9747V51.0641L67.4638 54.2231V58.018L42.9554 66.1811V85.0614Z" fill="white"/>
<path d="M56.1502 128.507V127.561H46.4973V131.14H56.0248V130.194H47.6336V128.507H56.1502Z" fill="white"/>
<path d="M56.1502 123.136V122.189H46.4973V125.769H56.0248V124.823H47.6336V123.136H56.1502Z" fill="white"/>
<path d="M64.0093 117.764V116.817H46.4973V120.397H56.0248V119.451H47.6336V117.764H64.0093Z" fill="white"/>
<path d="M46.4973 115.026H64.5793V111.446H46.4973V115.026ZM47.6336 112.393H63.443V114.077H47.6336V112.393Z" fill="white"/>
<path d="M46.4973 109.655H64.5793V106.075H46.4973V109.655ZM47.6336 107.022H63.443V108.706H47.6336V107.022Z" fill="white"/>
<path d="M46.4973 104.283H64.5793V100.704H46.4973V104.283ZM47.6336 101.65H63.443V103.334H47.6336V101.65Z" fill="white"/>
<path d="M46.4973 98.9122H64.5793V95.3325H46.4973V98.9122ZM47.6336 96.2789H63.443V97.9629H47.6336V96.2789Z" fill="white"/>
<path d="M46.4973 93.5407H64.5793V89.9609H46.4973V93.5407ZM47.6336 90.9073H63.443V92.5913H47.6336V90.9073Z" fill="white"/>
<path d="M46.4973 88.1696H64.5793V84.5898H46.4973V88.1696ZM47.6336 85.5362H63.443V87.2202H47.6336V85.5362Z" fill="white"/>
<path d="M46.4973 82.7951H64.5793V79.2153H46.4973V82.7951ZM47.6336 80.1647H63.443V81.8487H47.6336V80.1647Z" fill="white"/>
<path d="M46.4973 77.424H64.5793V73.8442H46.4973V77.424ZM47.6336 74.7936H63.443V76.4776H47.6336V74.7936Z" fill="white"/>
<path d="M64.5793 68.4727H46.4973V72.0528H64.5793V68.4727ZM63.443 71.1064H47.6336V69.4224H63.443V71.1064Z" fill="white"/>
<path d="M117.503 138.882V111.313H99.2917V107.389H75.836V116.659H76.9723V108.338H98.1554V112.26H116.367V138.882H117.503Z" fill="white"/>
<path d="M114.47 133.748H98.3455V134.698H114.47V133.748Z" fill="white"/>
<path d="M114.47 131.536H98.3455V132.482H114.47V131.536Z" fill="white"/>
<path d="M114.47 129.323H98.3455V130.273H114.47V129.323Z" fill="white"/>
<path d="M114.47 127.111H98.3455V128.06H114.47V127.111Z" fill="white"/>
<path d="M114.47 124.902H98.3455V125.848H114.47V124.902Z" fill="white"/>
<path d="M114.47 122.689H98.3455V123.636H114.47V122.689Z" fill="white"/>
<path d="M114.47 120.477H98.3455V121.426H114.47V120.477Z" fill="white"/>
<path d="M114.47 118.264H98.3455V119.211H114.47V118.264Z" fill="white"/>
<path d="M114.47 116.052H98.3455V116.998H114.47V116.052Z" fill="white"/>
<path d="M114.47 113.842H98.3455V114.792H114.47V113.842Z" fill="white"/>
<path d="M96.1603 132.562H95.024V134.695H96.1603V132.562Z" fill="white"/>
<path d="M93.8877 132.562H92.7476V134.695H93.8877V132.562Z" fill="white"/>
<path d="M91.6074 132.562H90.4711V134.695H91.6074V132.562Z" fill="white"/>
<path d="M89.3348 132.562H88.1947V134.695H89.3348V132.562Z" fill="white"/>
<path d="M87.0584 132.562H85.9183V134.695H87.0584V132.562Z" fill="white"/>
<path d="M82.5056 132.562H81.3655V134.695H82.5056V132.562Z" fill="white"/>
<path d="M80.2292 132.562H79.0891V134.695H80.2292V132.562Z" fill="white"/>
<path d="M93.8877 129.403H92.7476V131.536H93.8877V129.403Z" fill="white"/>
<path d="M91.6074 129.403H90.4711V131.536H91.6074V129.403Z" fill="white"/>
<path d="M89.3348 129.403H88.1947V131.536H89.3348V129.403Z" fill="white"/>
<path d="M84.7782 129.403H83.6419V131.536H84.7782V129.403Z" fill="white"/>
<path d="M82.5056 129.403H81.3655V131.536H82.5056V129.403Z" fill="white"/>
<path d="M80.2292 129.403H79.0891V131.536H80.2292V129.403Z" fill="white"/>
<path d="M96.1603 126.244H95.024V128.377H96.1603V126.244Z" fill="white"/>
<path d="M93.8877 126.244H92.7476V128.377H93.8877V126.244Z" fill="white"/>
<path d="M91.6074 126.244H90.4711V128.377H91.6074V126.244Z" fill="white"/>
<path d="M89.3348 126.244H88.1947V128.377H89.3348V126.244Z" fill="white"/>
<path d="M87.0584 126.244H85.9183V128.377H87.0584V126.244Z" fill="white"/>
<path d="M82.5056 126.244H81.3655V128.377H82.5056V126.244Z" fill="white"/>
<path d="M80.2292 126.244H79.0891V128.377H80.2292V126.244Z" fill="white"/>
<path d="M96.1603 123.084H95.024V125.218H96.1603V123.084Z" fill="white"/>
<path d="M93.8877 123.084H92.7476V125.218H93.8877V123.084Z" fill="white"/>
<path d="M91.6074 123.084H90.4711V125.218H91.6074V123.084Z" fill="white"/>
<path d="M87.0584 123.084H85.9183V125.218H87.0584V123.084Z" fill="white"/>
<path d="M84.7782 123.084H83.6419V125.218H84.7782V123.084Z" fill="white"/>
<path d="M82.5056 123.084H81.3655V125.218H82.5056V123.084Z" fill="white"/>
<path d="M96.1603 119.922H95.024V122.056H96.1603V119.922Z" fill="white"/>
<path d="M93.8877 119.922H92.7476V122.056H93.8877V119.922Z" fill="white"/>
<path d="M91.6074 119.922H90.4711V122.056H91.6074V119.922Z" fill="white"/>
<path d="M89.3348 119.922H88.1947V122.056H89.3348V119.922Z" fill="white"/>
<path d="M87.0584 119.922H85.9183V122.056H87.0584V119.922Z" fill="white"/>
<path d="M84.7782 119.922H83.6419V122.056H84.7782V119.922Z" fill="white"/>
<path d="M82.5056 119.922H81.3655V122.056H82.5056V119.922Z" fill="white"/>
<path d="M80.2292 119.922H79.0891V122.056H80.2292V119.922Z" fill="white"/>
<path d="M96.1603 116.764H95.024V118.897H96.1603V116.764Z" fill="white"/>
<path d="M93.8877 116.764H92.7476V118.897H93.8877V116.764Z" fill="white"/>
<path d="M91.6074 116.764H90.4711V118.897H91.6074V116.764Z" fill="white"/>
<path d="M89.3348 116.764H88.1947V118.897H89.3348V116.764Z" fill="white"/>
<path d="M87.0584 116.764H85.9183V118.897H87.0584V116.764Z" fill="white"/>
<path d="M84.7782 116.764H83.6419V118.897H84.7782V116.764Z" fill="white"/>
<path d="M82.5056 116.764H81.3655V118.897H82.5056V116.764Z" fill="white"/>
<path d="M80.2292 116.764H79.0891V118.897H80.2292V116.764Z" fill="white"/>
<path d="M96.1603 113.605H95.024V115.738H96.1603V113.605Z" fill="white"/>
<path d="M93.8877 113.605H92.7476V115.738H93.8877V113.605Z" fill="white"/>
<path d="M91.6074 113.605H90.4711V115.738H91.6074V113.605Z" fill="white"/>
<path d="M89.3348 113.605H88.1947V115.738H89.3348V113.605Z" fill="white"/>
<path d="M87.0584 113.605H85.9183V115.738H87.0584V113.605Z" fill="white"/>
<path d="M84.7782 113.605H83.6419V115.738H84.7782V113.605Z" fill="white"/>
<path d="M80.2292 113.605H79.0891V115.738H80.2292V113.605Z" fill="white"/>
<path d="M96.1603 110.443H95.024V112.576H96.1603V110.443Z" fill="white"/>
<path d="M91.6074 110.443H90.4711V112.576H91.6074V110.443Z" fill="white"/>
<path d="M87.0584 110.443H85.9183V112.576H87.0584V110.443Z" fill="white"/>
<path d="M84.7782 110.443H83.6419V112.576H84.7782V110.443Z" fill="white"/>
<path d="M82.5056 110.443H81.3655V112.576H82.5056V110.443Z" fill="white"/>
<path d="M80.2292 110.443H79.0891V112.576H80.2292V110.443Z" fill="white"/>
<path d="M84.782 63.408L87.4195 62.7878V105.863H88.5558V62.5187L91.2122 61.892V105.863H92.3485V61.626L95.005 60.9993V105.863H96.1451V60.7336L98.7977 60.1069V105.863H99.9378V59.8408L103.655 58.9641V70.7355H110.864V43.7775L122.291 39.9287H130.971V43.4579V105.809H132.108V43.4579V38.9823V37.2446H130.971V38.9823H122.071L109.728 43.1382V69.7891H104.795V57.7106L83.6419 62.6897V105.863H84.782V63.408Z" fill="white"/>
<path d="M111.054 107.917H103.655V108.867H111.054V107.917Z" fill="white"/>
<path d="M111.054 105.388H103.655V106.335H111.054V105.388Z" fill="white"/>
<path d="M111.054 102.862H103.655V103.809H111.054V102.862Z" fill="white"/>
<path d="M111.054 100.333H103.655V101.28H111.054V100.333Z" fill="white"/>
<path d="M111.054 97.8047H103.655V98.7541H111.054V97.8047Z" fill="white"/>
<path d="M111.054 95.2788H103.655V96.2282H111.054V95.2788Z" fill="white"/>
<path d="M111.054 92.7495H103.655V93.6993H111.054V92.7495Z" fill="white"/>
<path d="M111.054 90.2207H103.655V91.1701H111.054V90.2207Z" fill="white"/>
<path d="M111.054 87.6948H103.655V88.6412H111.054V87.6948Z" fill="white"/>
<path d="M111.054 85.166H103.655V86.1123H111.054V85.166Z" fill="white"/>
<path d="M111.054 82.6401H103.655V83.5895H111.054V82.6401Z" fill="white"/>
<path d="M111.054 80.1113H103.655V81.0607H111.054V80.1113Z" fill="white"/>
<path d="M111.054 77.582H103.655V78.5318H111.054V77.582Z" fill="white"/>
<path d="M111.054 75.0562H103.655V76.0025H111.054V75.0562Z" fill="white"/>
<path d="M111.054 72.5273H103.655V73.4737H111.054V72.5273Z" fill="white"/>
<path d="M157.148 138.882V107.389H120.73V138.882H121.866V108.338H156.012V138.882H157.148Z" fill="white"/>
<path d="M124.268 130.469V133.748H153.481V132.799H125.408V130.469H124.268Z" fill="white"/>
<path d="M153.481 128.06H125.408V125.731H124.268V129.007H153.481V128.06Z" fill="white"/>
<path d="M153.481 123.319H125.408V120.989H124.268V124.268H153.481V123.319Z" fill="white"/>
<path d="M153.481 118.581H125.408V116.251H124.268V119.531H153.481V118.581Z" fill="white"/>
<path d="M153.481 113.843H125.408V111.51H124.268V114.789H153.481V113.843Z" fill="white"/>
<path d="M127.559 102.071H113.9V104.914H115.037V103.021H127.559V102.071Z" fill="white"/>
<path d="M113.9 100.808H115.037V98.9123H127.559V97.9629H113.9V100.808Z" fill="white"/>
<path d="M113.9 96.7H115.037V94.8039H127.559V93.8545H113.9V96.7Z" fill="white"/>
<path d="M113.9 92.5914H115.037V90.6954H127.559V89.749H113.9V92.5914Z" fill="white"/>
<path d="M113.9 88.483H115.037V86.587H127.559V85.6406H113.9V88.483Z" fill="white"/>
<path d="M113.9 84.3777H115.037V82.4816H127.559V81.5322H113.9V84.3777Z" fill="white"/>
<path d="M113.9 80.2693H115.037V78.3732H127.559V77.4238H113.9V80.2693Z" fill="white"/>
<path d="M113.9 76.1608H115.037V74.2647H127.559V73.3184H113.9V76.1608Z" fill="white"/>
<path d="M113.9 72.0524H115.037V70.1563H127.559V69.21H113.9V72.0524Z" fill="white"/>
<path d="M113.9 67.947H115.037V66.0509H127.559V65.1016H113.9V67.947Z" fill="white"/>
<path d="M113.9 63.8386H115.037V61.9425H127.559V60.9932H113.9V63.8386Z" fill="white"/>
<path d="M113.9 59.7306H115.037V57.8345H127.559V56.8882H113.9V59.7306Z" fill="white"/>
<path d="M113.9 55.6222H115.037V53.7261H127.559V52.7798H113.9V55.6222Z" fill="white"/>
<path d="M113.9 51.5169H115.037V49.6208H127.559V48.6714H113.9V51.5169Z" fill="white"/>
<path d="M127.559 45.5124V44.563H113.9V47.4085H115.037V45.5124H127.559Z" fill="white"/>
<path d="M138.591 105.863H139.727V67.235H176.116V114.631H177.256V66.2856H138.591V105.863Z" fill="white"/>
<path d="M163.514 132.511H160.5V133.457H163.514V132.511Z" fill="white"/>
<path d="M163.894 129.665H160.5V130.611H163.894V129.665Z" fill="white"/>
<path d="M163.894 126.823H160.5V127.769H163.894V126.823Z" fill="white"/>
<path d="M163.704 121.135H160.5V122.081H163.704V121.135Z" fill="white"/>
<path d="M163.894 118.29H160.5V119.236H163.894V118.29Z" fill="white"/>
<path d="M172.639 112.604H160.5V113.551H172.639V112.604Z" fill="white"/>
<path d="M172.639 109.759H160.5V110.706H172.639V109.759Z" fill="white"/>
<path d="M172.639 106.917H160.5V107.863H172.639V106.917Z" fill="white"/>
<path d="M172.639 104.071H142.794V105.021H172.639V104.071Z" fill="white"/>
<path d="M172.639 101.229H142.794V102.176H172.639V101.229Z" fill="white"/>
<path d="M172.639 95.5415H142.794V96.4909H172.639V95.5415Z" fill="white"/>
<path d="M172.639 92.6958H142.794V93.6421H172.639V92.6958Z" fill="white"/>
<path d="M172.639 89.8535H142.794V90.7998H172.639V89.8535Z" fill="white"/>
<path d="M172.639 87.0078H142.794V87.9572H172.639V87.0078Z" fill="white"/>
<path d="M172.639 81.3232H142.794V82.2696H172.639V81.3232Z" fill="white"/>
<path d="M172.639 78.4775H142.794V79.4239H172.639V78.4775Z" fill="white"/>
<path d="M172.639 75.6353H142.794V76.585H172.639V75.6353Z" fill="white"/>
<path d="M172.639 69.9473H142.794V70.894H172.639V69.9473Z" fill="white"/>
<path d="M158.494 50.6082L172.787 43.9326H185.982V23.7103H197.364V32.6076H198.5V22.7607H184.845V42.9832H172.49L157.354 50.0511V65.5762H158.494V50.6082Z" fill="white"/>
<path d="M194.711 129.159H193.571V133.274H194.711V129.159Z" fill="white"/>
<path d="M191.291 129.159H190.154V133.274H191.291V129.159Z" fill="white"/>
<path d="M194.711 123.914H193.571V128.029H194.711V123.914Z" fill="white"/>
<path d="M191.291 123.914H190.154V128.029H191.291V123.914Z" fill="white"/>
<path d="M194.711 118.666H193.571V122.781H194.711V118.666Z" fill="white"/>
<path d="M191.291 118.666H190.154V122.781H191.291V118.666Z" fill="white"/>
<path d="M194.711 113.421H193.571V117.536H194.711V113.421Z" fill="white"/>
<path d="M191.291 113.421H190.154V117.536H191.291V113.421Z" fill="white"/>
<path d="M187.878 113.421H186.742V117.536H187.878V113.421Z" fill="white"/>
<path d="M194.711 108.177H193.571V112.292H194.711V108.177Z" fill="white"/>
<path d="M191.291 108.177H190.154V112.292H191.291V108.177Z" fill="white"/>
<path d="M187.878 108.177H186.742V112.292H187.878V108.177Z" fill="white"/>
<path d="M184.461 108.177H183.325V112.292H184.461V108.177Z" fill="white"/>
<path d="M181.052 108.177H179.912V112.292H181.052V108.177Z" fill="white"/>
<path d="M194.711 102.929H193.571V107.044H194.711V102.929Z" fill="white"/>
<path d="M191.291 102.929H190.154V107.044H191.291V102.929Z" fill="white"/>
<path d="M187.878 102.929H186.742V107.044H187.878V102.929Z" fill="white"/>
<path d="M184.461 102.929H183.325V107.044H184.461V102.929Z" fill="white"/>
<path d="M181.052 102.929H179.912V107.044H181.052V102.929Z" fill="white"/>
<path d="M194.711 97.6841H193.571V101.799H194.711V97.6841Z" fill="white"/>
<path d="M191.291 97.6841H190.154V101.799H191.291V97.6841Z" fill="white"/>
<path d="M187.878 97.6841H186.742V101.799H187.878V97.6841Z" fill="white"/>
<path d="M184.461 97.6841H183.325V101.799H184.461V97.6841Z" fill="white"/>
<path d="M181.052 97.6841H179.912V101.799H181.052V97.6841Z" fill="white"/>
<path d="M194.711 92.4365H193.571V96.5514H194.711V92.4365Z" fill="white"/>
<path d="M191.291 92.4365H190.154V96.5514H191.291V92.4365Z" fill="white"/>
<path d="M187.878 92.4365H186.742V96.5514H187.878V92.4365Z" fill="white"/>
<path d="M184.461 92.4365H183.325V96.5514H184.461V92.4365Z" fill="white"/>
<path d="M181.052 92.4365H179.912V96.5514H181.052V92.4365Z" fill="white"/>
<path d="M194.711 87.1914H193.571V91.3062H194.711V87.1914Z" fill="white"/>
<path d="M191.291 87.1914H190.154V91.3062H191.291V87.1914Z" fill="white"/>
<path d="M187.878 87.1914H186.742V91.3062H187.878V87.1914Z" fill="white"/>
<path d="M184.461 87.1914H183.325V91.3062H184.461V87.1914Z" fill="white"/>
<path d="M181.052 87.1914H179.912V91.3062H181.052V87.1914Z" fill="white"/>
<path d="M194.711 81.9468H193.571V86.0616H194.711V81.9468Z" fill="white"/>
<path d="M191.291 81.9468H190.154V86.0616H191.291V81.9468Z" fill="white"/>
<path d="M187.878 81.9468H186.742V86.0616H187.878V81.9468Z" fill="white"/>
<path d="M184.461 81.9468H183.325V86.0616H184.461V81.9468Z" fill="white"/>
<path d="M181.052 81.9468H179.912V86.0616H181.052V81.9468Z" fill="white"/>
<path d="M194.711 76.6992H193.571V80.8137H194.711V76.6992Z" fill="white"/>
<path d="M191.291 76.6992H190.154V80.8137H191.291V76.6992Z" fill="white"/>
<path d="M187.878 76.6992H186.742V80.8137H187.878V76.6992Z" fill="white"/>
<path d="M184.461 76.6992H183.325V80.8137H184.461V76.6992Z" fill="white"/>
<path d="M181.052 76.6992H179.912V80.8137H181.052V76.6992Z" fill="white"/>
<path d="M194.711 71.4541H193.571V75.5686H194.711V71.4541Z" fill="white"/>
<path d="M191.291 71.4541H190.154V75.5686H191.291V71.4541Z" fill="white"/>
<path d="M187.878 71.4541H186.742V75.5686H187.878V71.4541Z" fill="white"/>
<path d="M184.461 71.4541H183.325V75.5686H184.461V71.4541Z" fill="white"/>
<path d="M181.052 71.4541H179.912V75.5686H181.052V71.4541Z" fill="white"/>
<path d="M194.711 66.2095H193.571V70.3239H194.711V66.2095Z" fill="white"/>
<path d="M191.291 66.2095H190.154V70.3239H191.291V66.2095Z" fill="white"/>
<path d="M187.878 66.2095H186.742V70.3239H187.878V66.2095Z" fill="white"/>
<path d="M184.461 66.2095H183.325V70.3239H184.461V66.2095Z" fill="white"/>
<path d="M181.052 66.2095H179.912V70.3239H181.052V66.2095Z" fill="white"/>
<path d="M215.32 138.882V35.3994H190.154V62.1611H191.294V36.3489H197.364V138.882H198.5V36.3489H214.184V138.882H215.32Z" fill="white"/>
<path d="M200.305 131.378H201.441V129.877H211.493V128.928H200.305V131.378Z" fill="white"/>
<path d="M211.493 125.136H200.305V127.586H201.441V126.085H211.493V125.136Z" fill="white"/>
<path d="M211.493 121.347H200.305V123.794H201.441V122.293H211.493V121.347Z" fill="white"/>
<path d="M211.493 117.555H200.305V120.002H201.441V118.502H211.493V117.555Z" fill="white"/>
<path d="M211.493 113.764H200.305V116.21H201.441V114.71H211.493V113.764Z" fill="white"/>
<path d="M211.493 109.971H200.305V112.418H201.441V110.918H211.493V109.971Z" fill="white"/>
<path d="M211.493 106.18H200.305V108.626H201.441V107.126H211.493V106.18Z" fill="white"/>
<path d="M211.493 102.388H200.305V104.838H201.441V103.334H211.493V102.388Z" fill="white"/>
<path d="M211.493 98.5957H200.305V101.046H201.441V99.542H211.493V98.5957Z" fill="white"/>
<path d="M211.493 94.8037H200.305V97.2535H201.441V95.75H211.493V94.8037Z" fill="white"/>
<path d="M211.493 91.0117H200.305V93.4616H201.441V91.9615H211.493V91.0117Z" fill="white"/>
<path d="M211.493 87.2202H200.305V89.67H201.441V88.1696H211.493V87.2202Z" fill="white"/>
<path d="M211.493 83.4282H200.305V85.878H201.441V84.3776H211.493V83.4282Z" fill="white"/>
<path d="M211.493 79.6362H200.305V82.0861H201.441V80.586H211.493V79.6362Z" fill="white"/>
<path d="M211.493 75.8442H200.305V78.2941H201.441V76.7936H211.493V75.8442Z" fill="white"/>
<path d="M211.493 72.0527H200.305V74.5026H201.441V73.0021H211.493V72.0527Z" fill="white"/>
<path d="M211.493 68.2603H200.305V70.7105H201.441V69.21H211.493V68.2603Z" fill="white"/>
<path d="M211.493 64.4688H200.305V66.9186H201.441V65.4185H211.493V64.4688Z" fill="white"/>
<path d="M211.493 60.6797H200.305V63.1265H201.441V61.626H211.493V60.6797Z" fill="white"/>
<path d="M211.493 56.8882H200.305V59.335H201.441V57.8345H211.493V56.8882Z" fill="white"/>
<path d="M211.493 53.0962H200.305V55.5426H201.441V54.0425H211.493V53.0962Z" fill="white"/>
<path d="M211.493 49.3042H200.305V51.751H201.441V50.2509H211.493V49.3042Z" fill="white"/>
<path d="M211.493 45.5122H200.305V47.959H201.441V46.4585H211.493V45.5122Z" fill="white"/>
<path d="M211.493 41.7202H200.305V44.17H201.441V42.6665H211.493V41.7202Z" fill="white"/>
<path d="M211.493 37.9287H200.305V40.3787H201.441V38.8752H211.493V37.9287Z" fill="white"/>
<path d="M180.737 139.009V133.286C184.26 133.042 187.038 130.583 187.038 127.585C187.038 126.003 186.263 124.515 184.895 123.436C185.624 122.604 186.023 121.6 186.023 120.565C186.023 117.875 183.397 115.688 180.167 115.688C177.283 115.688 174.885 117.435 174.402 119.726C173.52 119.131 172.403 118.774 171.183 118.774C168.359 118.774 166.064 120.686 166.064 123.037C166.064 123.923 166.395 124.781 167.01 125.5C165.847 126.437 165.19 127.718 165.19 129.079C165.19 131.672 167.576 133.808 170.613 134.049V138.911H171.753V134.049C173.463 133.913 174.961 133.175 175.949 132.096C177.001 132.78 178.259 133.191 179.597 133.283V139.002H180.737V139.009ZM171.757 133.099V131.406L174.159 129.406L173.353 128.734L171.757 130.064V127.487H170.617V128.345L168.815 126.842L168.01 127.513L170.617 129.684V133.096C168.207 132.862 166.33 131.153 166.33 129.082C166.33 127.852 166.991 126.703 168.15 125.93L168.618 125.617L168.219 125.243C167.565 124.632 167.204 123.851 167.204 123.04C167.204 121.211 168.99 119.723 171.187 119.723C173.383 119.723 175.17 121.211 175.17 123.04C175.17 123.851 174.809 124.635 174.155 125.243L173.756 125.617L174.223 125.93C175.379 126.703 176.044 127.855 176.044 129.082C176.044 131.153 174.166 132.862 171.757 133.099ZM176.553 131.295C176.952 130.627 177.18 129.88 177.18 129.086C177.18 127.725 176.522 126.443 175.36 125.506C175.971 124.788 176.306 123.93 176.306 123.043C176.306 122.176 175.99 121.366 175.455 120.692C175.455 120.651 175.451 120.61 175.451 120.568C175.451 118.4 177.568 116.637 180.171 116.637C182.774 116.637 184.891 118.4 184.891 120.568C184.891 121.53 184.465 122.458 183.69 123.179L183.291 123.553L183.758 123.866C185.123 124.781 185.906 126.136 185.906 127.589C185.906 130.061 183.637 132.102 180.741 132.34V130.254L183.557 127.909L182.751 127.237L180.741 128.912V125.734H179.601V126.915L177.347 125.038L176.541 125.709L179.597 128.253V132.34C178.476 132.248 177.427 131.887 176.553 131.295Z" fill="white"/>
<path d="M182.755 120.568H183.895C183.895 120.072 183.751 119.574 183.473 119.135L182.466 119.574C182.656 119.882 182.755 120.217 182.755 120.568Z" fill="white"/>
<path d="M182.626 118.239C181.946 117.742 181.071 117.467 180.167 117.467V118.413C180.794 118.413 181.402 118.603 181.873 118.948L182.626 118.239Z" fill="white"/>
<path d="M174.098 121.778L173.091 122.218C173.25 122.474 173.334 122.753 173.334 123.044H174.474C174.47 122.604 174.345 122.167 174.098 121.778Z" fill="white"/>
<path d="M171.187 120.306V121.252C171.707 121.252 172.209 121.41 172.604 121.699L173.357 120.986C172.756 120.546 171.985 120.306 171.187 120.306Z" fill="white"/>
<path d="M71.9482 139.053V133.887C75.1595 133.647 77.683 131.396 77.683 128.659C77.683 127.218 76.9837 125.867 75.7486 124.876C76.4022 124.116 76.7595 123.208 76.7595 122.268C76.7595 119.796 74.3463 117.786 71.3782 117.786C68.7559 117.786 66.5707 119.356 66.0957 121.429C65.2976 120.91 64.2943 120.597 63.2036 120.597C60.608 120.597 58.4912 122.357 58.4912 124.521C58.4912 125.326 58.7876 126.104 59.3349 126.756C58.286 127.617 57.6931 128.782 57.6931 130.02C57.6931 132.387 59.8593 134.343 62.6298 134.581V138.964H63.7699V134.581C65.3052 134.448 66.6505 133.789 67.5474 132.824C68.4937 133.428 69.611 133.796 70.8043 133.884V139.05H71.9482V139.053ZM63.7737 133.625V132.15L65.9437 130.342L65.138 129.672L63.7737 130.808V128.567H62.6336V129.244L61.0792 127.95L60.2736 128.621L62.6336 130.586V133.625C60.494 133.39 58.8332 131.865 58.8332 130.023C58.8332 128.915 59.4299 127.883 60.4712 127.187L60.9386 126.873L60.5396 126.5C59.9543 125.952 59.6313 125.25 59.6313 124.521C59.6313 122.882 61.235 121.546 63.2036 121.546C65.1722 121.546 66.776 122.882 66.776 124.521C66.776 125.25 66.4529 125.952 65.8677 126.5L65.4686 126.873L65.9361 127.187C66.9774 127.883 67.574 128.918 67.574 130.023C67.574 131.865 65.9133 133.39 63.7737 133.625ZM68.1517 132.02C68.5051 131.415 68.7103 130.738 68.7103 130.023C68.7103 128.785 68.1175 127.62 67.0686 126.76C67.6158 126.104 67.9123 125.326 67.9123 124.525C67.9123 123.73 67.6272 122.99 67.137 122.373C67.137 122.338 67.1332 122.306 67.1332 122.271C67.1332 120.321 69.0372 118.739 71.3744 118.739C73.7154 118.739 75.6194 120.325 75.6194 122.271C75.6194 123.135 75.2355 123.971 74.5401 124.62L74.141 124.993L74.6085 125.307C75.8398 126.129 76.5429 127.351 76.5429 128.662C76.5429 130.874 74.5287 132.701 71.9444 132.938V131.105L74.4907 128.984L73.685 128.314L71.9406 129.766V126.975H70.8005V127.946L68.8395 126.313L68.0339 126.984L70.8005 129.288V132.941C69.8314 132.846 68.9194 132.53 68.1517 132.02Z" fill="white"/>
<path d="M73.6812 122.268H74.8175C74.8175 121.806 74.6845 121.35 74.4261 120.942L73.419 121.382C73.5938 121.661 73.6812 121.958 73.6812 122.268Z" fill="white"/>
<path d="M73.647 120.119C73.0199 119.66 72.2143 119.404 71.3782 119.404V120.353C71.9368 120.353 72.4765 120.524 72.8983 120.831L73.647 120.119Z" fill="white"/>
<path d="M65.9019 123.351L64.8948 123.791C65.0392 124.018 65.1114 124.265 65.1114 124.522H66.2515C66.2439 124.113 66.1261 123.708 65.9019 123.351Z" fill="white"/>
<path d="M63.2036 121.99V122.939C63.6673 122.939 64.1119 123.079 64.4577 123.335L65.2102 122.623C64.6554 122.214 63.9447 121.99 63.2036 121.99Z" fill="white"/>
<path d="M126.438 29.4046C124.389 29.4046 122.687 30.6738 122.409 32.3197H120.106C119.791 32.3197 119.536 32.5318 119.536 32.7945C119.536 33.0572 119.791 33.2693 120.106 33.2693H122.938C123.253 33.2693 123.508 33.0572 123.508 32.7945C123.508 31.4493 124.823 30.3542 126.438 30.3542C127.133 30.3542 127.806 30.5599 128.33 30.9334C128.57 31.1012 128.927 31.079 129.132 30.8796C129.337 30.6802 129.307 30.3795 129.067 30.2117C128.71 29.9585 128.304 29.7623 127.87 29.6262C128.63 27.3947 131.108 25.8121 133.932 25.8121C136.471 25.8121 138.751 27.0719 139.739 29.0185C139.86 29.259 140.195 29.3729 140.484 29.2716C140.773 29.1704 140.909 28.8918 140.784 28.6513C140.659 28.4044 140.514 28.1702 140.355 27.9423C140.571 27.9169 140.788 27.9011 141.008 27.9011C143.437 27.9011 145.413 29.547 145.413 31.5696C145.413 31.8323 145.667 32.0444 145.983 32.0444C146.298 32.0444 146.553 31.8323 146.553 31.5696C146.553 31.3638 146.53 31.1644 146.5 30.965C147.868 30.9714 148.978 31.8988 148.978 33.0414C148.978 33.3041 149.232 33.5162 149.548 33.5162H152.337C152.652 33.5162 152.907 33.3041 152.907 33.0414C152.907 32.7787 152.652 32.5666 152.337 32.5666H150.072C149.798 31.1233 148.293 30.0186 146.488 30.0186C146.401 30.0186 146.313 30.025 146.23 30.0281C145.466 28.2398 143.418 26.9547 141.012 26.9547C140.552 26.9547 140.096 27.0054 139.651 27.0972C138.261 25.7045 136.182 24.8657 133.932 24.8657C130.576 24.8657 127.639 26.7585 126.761 29.4204C126.654 29.4077 126.548 29.4046 126.438 29.4046Z" fill="white"/>
<path d="M86.3668 15.2374H89.9657C90.2811 15.2374 90.5357 15.0254 90.5357 14.7626C90.5357 12.9806 92.2763 11.5341 94.4121 11.5341C95.3318 11.5341 96.2211 11.8063 96.9203 12.3001C97.1598 12.4711 97.5208 12.4457 97.7222 12.2463C97.9274 12.0469 97.897 11.7462 97.6576 11.5785C97.1826 11.2429 96.6353 10.9866 96.0539 10.8188C96.9925 7.86568 100.234 5.75767 103.943 5.75767C107.234 5.75767 110.187 7.38776 111.468 9.91041C111.59 10.151 111.924 10.2649 112.213 10.1636C112.502 10.0624 112.639 9.78381 112.517 9.54323C112.331 9.17926 112.114 8.83109 111.871 8.49873C112.224 8.44492 112.582 8.41326 112.943 8.41326C116.116 8.41326 118.693 10.5624 118.693 13.2022C118.693 13.4649 118.947 13.677 119.263 13.677C119.578 13.677 119.833 13.4649 119.833 13.2022C119.833 12.8984 119.795 12.604 119.741 12.3128C119.795 12.3096 119.852 12.3065 119.905 12.3065C121.737 12.3065 123.226 13.5472 123.226 15.0728C123.226 15.3356 123.481 15.5476 123.796 15.5476H127.342C127.658 15.5476 127.912 15.3356 127.912 15.0728C127.912 14.8101 127.658 14.5981 127.342 14.5981H124.328C124.047 12.7718 122.17 11.3569 119.905 11.3569C119.76 11.3569 119.612 11.3632 119.468 11.3759C118.548 9.10644 115.975 7.46373 112.943 7.46373C112.335 7.46373 111.738 7.53336 111.156 7.66311C109.42 5.88427 106.794 4.80811 103.943 4.80811C99.7022 4.80811 95.9969 7.22631 94.9442 10.6099C94.7693 10.5941 94.5907 10.5846 94.4121 10.5846C91.8393 10.5846 89.7111 12.2083 89.4298 14.2879H86.3668C86.0513 14.2879 85.7967 14.4999 85.7967 14.7626C85.7967 15.0254 86.0513 15.2374 86.3668 15.2374Z" fill="white"/>
<path d="M29.4261 51.4056H32.1928C32.5082 51.4056 32.7628 51.1935 32.7628 50.9309C32.7628 49.6239 34.0397 48.5601 35.6093 48.5601C36.2819 48.5601 36.9394 48.7596 37.4525 49.1237C37.6919 49.2944 38.0529 49.2693 38.2543 49.0698C38.4595 48.8702 38.4291 48.5696 38.1897 48.402C37.8439 48.155 37.4487 47.9653 37.0306 47.8323C37.7755 45.6611 40.1849 44.1226 42.9364 44.1226C45.4104 44.1226 47.6336 45.3506 48.5989 47.2466C48.7205 47.4872 49.0549 47.6012 49.3437 47.4998C49.6326 47.3987 49.7694 47.1201 49.644 46.8795C49.5262 46.642 49.3856 46.4174 49.2335 46.2023C49.4388 46.1768 49.644 46.1643 49.8492 46.1643C52.213 46.1643 54.136 47.7658 54.136 49.7345C54.136 49.9971 54.3906 50.2092 54.706 50.2092C55.0215 50.2092 55.2761 49.9971 55.2761 49.7345C55.2761 49.5384 55.2571 49.3453 55.2267 49.1553C56.5492 49.1678 57.6209 50.067 57.6209 51.1715C57.6209 51.4341 57.8755 51.6461 58.191 51.6461H60.9158C61.2312 51.6461 61.4859 51.4341 61.4859 51.1715C61.4859 50.9088 61.2312 50.6968 60.9158 50.6968H58.7154C58.4418 49.2883 56.971 48.2059 55.2001 48.2059C55.1203 48.2059 55.0367 48.212 54.9569 48.2154C54.2044 46.4679 52.2054 45.2145 49.853 45.2145C49.4046 45.2145 48.9599 45.262 48.5305 45.354C47.1699 43.996 45.1368 43.1763 42.9364 43.1763C39.6567 43.1763 36.7836 45.0249 35.9209 47.6263C35.8183 47.6202 35.7157 47.6138 35.6131 47.6138C33.6065 47.6138 31.9457 48.8516 31.6683 50.4592H29.4299C29.1145 50.4592 28.8599 50.6713 28.8599 50.9343C28.8561 51.1935 29.1107 51.4056 29.4261 51.4056Z" fill="white"/>
<path d="M200.67 11.0244H204.497C204.812 11.0244 205.067 10.8123 205.067 10.5496C205.067 8.64098 206.933 7.08686 209.224 7.08686C210.209 7.08686 211.163 7.37806 211.915 7.90664C212.155 8.0744 212.512 8.05224 212.717 7.85283C212.922 7.65345 212.892 7.35275 212.652 7.18499C212.143 6.82417 211.554 6.55194 210.927 6.37468C211.915 3.2095 215.385 0.946391 219.356 0.946391C222.868 0.946391 226.018 2.68725 227.386 5.38084C227.508 5.62138 227.842 5.73532 228.131 5.63403C228.42 5.53275 228.557 5.25421 228.435 5.01367C228.234 4.61169 227.991 4.23186 227.721 3.87104C228.116 3.80772 228.515 3.76974 228.922 3.76974C232.312 3.76974 235.071 6.06767 235.071 8.89102C235.071 9.15375 235.325 9.36582 235.641 9.36582C235.956 9.36582 236.211 9.15375 236.211 8.89102C236.211 8.55866 236.169 8.23584 236.108 7.91614C236.18 7.91299 236.253 7.90664 236.321 7.90664C238.29 7.90664 239.889 9.23919 239.889 10.8788C239.889 11.1415 240.144 11.3535 240.46 11.3535H244.23C244.545 11.3535 244.8 11.1415 244.8 10.8788C244.8 10.616 244.545 10.404 244.23 10.404H240.995C240.714 8.46688 238.727 6.96027 236.325 6.96027C236.161 6.96027 235.998 6.96658 235.838 6.98243C234.873 4.57053 232.141 2.82335 228.925 2.82335C228.276 2.82335 227.633 2.89931 227.01 3.03858C225.171 1.1458 222.381 0 219.356 0C214.857 0 210.923 2.5733 209.817 6.17211C209.624 6.15315 209.426 6.14045 209.224 6.14045C206.496 6.14045 204.242 7.86867 203.961 10.078H200.674C200.358 10.078 200.104 10.29 200.104 10.5528C200.1 10.8123 200.354 11.0244 200.67 11.0244Z" fill="white"/>
<path d="M160.481 63.8895L172.779 58.6006H186.046V57.6509H172.502L160.481 62.8227V63.8895Z" fill="white"/>
<path d="M186.046 61.1577H172.502L165.729 64.0727V65.1395L172.779 62.1071H186.046V61.1577Z" fill="white"/>
<path d="M186.046 47.883V46.9336H172.502L160.481 52.1054V53.1722L172.779 47.883H186.046Z" fill="white"/>
<path d="M160.481 56.8597L172.779 51.5705H186.046V50.6211H172.502L160.481 55.7929V56.8597Z" fill="white"/>
<path d="M160.481 60.202L172.779 54.9128H186.046V53.9634H172.502L160.481 59.1352V60.202Z" fill="white"/>
</g>
<defs>
<clipPath id="clip0_554_1007">
<rect width="217" height="141" fill="white"/>
</clipPath>
</defs>
</svg>
